<svg width="55" height="44" viewBox="0 0 55 44" fill="none" xmlns="http://www.w3.org/2000/svg">
<path d="M0.707106 23.4112C0.316582 23.0207 0.316583 22.3875 0.707107 21.997L9.64949 13.0546C10.04 12.6641 10.6732 12.6641 11.0637 13.0546L31.1525 33.1434L22.2101 42.0858C21.4291 42.8668 20.1627 42.8668 19.3817 42.0858L0.707106 23.4112Z" fill="#3B68C3"/>
<path d="M11.7959 31C10.5 32.2959 8.7959 31 7.7959 30.5L19.3817 42.0858C20.1627 42.8668 21.4291 42.8668 22.2101 42.0858L45.7959 18.5L52.5888 25.2929C53.2188 25.9229 54.2959 25.4767 54.2959 24.5858V1C54.2959 0.447715 53.8482 0 53.2959 0H29.2101C28.3192 0 27.873 1.07714 28.503 1.70711L34.7959 8L11.7959 31Z" fill="url(#paint0_linear)"/>
<defs>
<linearGradient id="paint0_linear" x1="16.2959" y1="38.5" x2="54.2959" y2="2.93728e-07" gradientUnits="userSpaceOnUse">
<stop stop-color="#6464FF"/>
<stop offset="0.41444" stop-color="#0ED7FF"/>
</linearGradient>
</defs>
</svg>
