<svg width="88" height="78" viewBox="0 0 88 78" fill="none" xmlns="http://www.w3.org/2000/svg">
<path fill-rule="evenodd" clip-rule="evenodd" d="M61.0082 36.843C61.095 36.0191 61.8332 35.4215 62.657 35.5082L72.157 36.5082C72.6244 36.5574 73.0417 36.8229 73.2845 37.2253C73.5272 37.6278 73.5673 38.1207 73.3927 38.5571L69.3927 48.5571C69.085 49.3263 68.2121 49.7004 67.4429 49.3927C66.6737 49.085 66.2996 48.2121 66.6073 47.4429L68.9404 41.6101C68.1349 42.0947 67.2145 42.6463 66.19 43.2571C62.0425 45.73 56.1898 49.1728 49.3666 53.0538C35.7288 60.8111 18.1812 70.3382 2.61738 77.3671C1.86238 77.708 0.973917 77.3724 0.632947 76.6174C0.291978 75.8624 0.627619 74.9739 1.38262 74.6329C16.8188 67.6618 34.2712 58.1889 47.8834 50.4462C54.6852 46.5772 60.52 43.145 64.6537 40.6804C65.6842 40.0659 66.609 39.5117 67.4166 39.0258L62.343 38.4918C61.5191 38.405 60.9215 37.6668 61.0082 36.843Z" fill="#1F2533"/>
<path fill-rule="evenodd" clip-rule="evenodd" d="M75.0082 1.84297C75.095 1.0191 75.8332 0.421518 76.657 0.508241L86.157 1.50824C86.6244 1.55744 87.0417 1.82286 87.2845 2.22532C87.5272 2.62777 87.5673 3.12072 87.3927 3.55709L83.3927 13.5571C83.085 14.3263 82.2121 14.7004 81.4429 14.3927C80.6737 14.085 80.2996 13.2121 80.6073 12.4429L82.9404 6.61015C82.1349 7.09467 81.2145 7.64633 80.19 8.25713C76.0425 10.73 70.1898 14.1728 63.3666 18.0538C49.7288 25.8111 32.1812 35.3382 16.6174 42.3671C15.8624 42.708 14.9739 42.3724 14.6329 41.6174C14.292 40.8624 14.6276 39.9739 15.3826 39.6329C30.8188 32.6618 48.2712 23.1889 61.8834 15.4462C68.6852 11.5772 74.52 8.14502 78.6537 5.68037C79.6842 5.06593 80.609 4.51167 81.4166 4.02582L76.343 3.49176C75.5191 3.40503 74.9215 2.66685 75.0082 1.84297Z" fill="#7171F5"/>
</svg>
