<svg width="190" height="186" viewBox="0 0 190 186" fill="none" xmlns="http://www.w3.org/2000/svg">
<ellipse cx="95" cy="93" rx="95" ry="92" fill="#1F2533"/>
<path d="M183 93C183 142.706 142.706 183 93 183C43.2944 183 3 142.706 3 93C3 43.2944 43.2944 3 93 3C142.706 3 183 43.2944 183 93Z" fill="#7171F5"/>
<path fill-rule="evenodd" clip-rule="evenodd" d="M186 93C186 144.362 144.362 186 93 186C41.6375 186 0 144.362 0 93C0 41.6375 41.6375 0 93 0C144.362 0 186 41.6375 186 93ZM93 183C142.706 183 183 142.706 183 93C183 43.2944 142.706 3 93 3C43.2944 3 3 43.2944 3 93C3 142.706 43.2944 183 93 183Z" fill="#1F2533"/>
<circle cx="93" cy="93" r="70" fill="#F7F0FF"/>
<path d="M102.086 107.211C102.086 104.997 101.383 103.174 99.9766 101.742C98.5703 100.284 96.2266 98.9818 92.9453 97.8359C89.6641 96.6641 87.112 95.5833 85.2891 94.5938C79.2214 91.3385 76.1875 86.5208 76.1875 80.1406C76.1875 75.8177 77.5026 72.263 80.1328 69.4766C82.763 66.6901 86.3307 65.0365 90.8359 64.5156V56H97.0859V64.5938C101.617 65.2448 105.12 67.1719 107.594 70.375C110.068 73.5521 111.305 77.6927 111.305 82.7969H101.852C101.852 79.5156 101.109 76.9375 99.625 75.0625C98.1667 73.1615 96.1745 72.2109 93.6484 72.2109C91.1484 72.2109 89.1953 72.888 87.7891 74.2422C86.3828 75.5964 85.6797 77.5365 85.6797 80.0625C85.6797 82.3281 86.3698 84.151 87.75 85.5312C89.1562 86.8854 91.526 88.1745 94.8594 89.3984C98.1927 90.6224 100.81 91.7552 102.711 92.7969C104.612 93.8385 106.214 95.0365 107.516 96.3906C108.818 97.7188 109.82 99.2552 110.523 101C111.227 102.745 111.578 104.789 111.578 107.133C111.578 111.534 110.224 115.102 107.516 117.836C104.833 120.57 101.083 122.185 96.2656 122.68V130.297H90.0547V122.719C84.8984 122.146 80.9271 120.297 78.1406 117.172C75.3802 114.047 74 109.906 74 104.75H83.4922C83.4922 108.031 84.3125 110.57 85.9531 112.367C87.6198 114.164 89.9635 115.062 92.9844 115.062C95.9531 115.062 98.2057 114.346 99.7422 112.914C101.305 111.482 102.086 109.581 102.086 107.211Z" fill="#7171F5"/>
<circle cx="132.5" cy="40.5" r="1.5" fill="#1F2533"/>
<circle cx="132.5" cy="49.5" r="1.5" fill="#1F2533"/>
<circle cx="132.5" cy="59.5" r="1.5" fill="#1F2533"/>
<circle cx="142.5" cy="69.5" r="1.5" fill="#1F2533"/>
<circle cx="151.5" cy="69.5" r="1.5" fill="#1F2533"/>
<circle cx="132.5" cy="69.5" r="1.5" fill="#1F2533"/>
<circle cx="142.5" cy="78.5" r="1.5" fill="#1F2533"/>
<circle cx="142.5" cy="88.5" r="1.5" fill="#1F2533"/>
<circle cx="142.5" cy="97.5" r="1.5" fill="#1F2533"/>
<circle cx="142.5" cy="107.5" r="1.5" fill="#1F2533"/>
<circle cx="142.5" cy="117.5" r="1.5" fill="#1F2533"/>
<circle cx="132.5" cy="117.5" r="1.5" fill="#1F2533"/>
<circle cx="142.5" cy="126.5" r="1.5" fill="#1F2533"/>
<circle cx="142.5" cy="136.5" r="1.5" fill="#1F2533"/>
<circle cx="132.5" cy="126.5" r="1.5" fill="#1F2533"/>
<circle cx="132.5" cy="136.5" r="1.5" fill="#1F2533"/>
<circle cx="132.5" cy="145.5" r="1.5" fill="#1F2533"/>
<circle cx="151.5" cy="78.5" r="1.5" fill="#1F2533"/>
<circle cx="151.5" cy="88.5" r="1.5" fill="#1F2533"/>
<circle cx="151.5" cy="97.5" r="1.5" fill="#1F2533"/>
<circle cx="151.5" cy="107.5" r="1.5" fill="#1F2533"/>
<circle cx="151.5" cy="117.5" r="1.5" fill="#1F2533"/>
<circle cx="142.5" cy="49.5" r="1.5" fill="#1F2533"/>
<circle cx="142.5" cy="59.5" r="1.5" fill="#1F2533"/>
</svg>
