<svg width="73" height="9" viewBox="0 0 73 9" fill="none" xmlns="http://www.w3.org/2000/svg">
<path d="M4.368 8.736C3.112 8.736 2.068 8.316 1.236 7.476C0.412 6.644 0 5.608 0 4.368C0 3.12 0.412 2.084 1.236 1.26C2.068 0.42 3.112 0 4.368 0C5.128 0 5.828 0.18 6.468 0.54C7.116 0.892001 7.62 1.372 7.98 1.98L6.552 2.808C6.344 2.432 6.048 2.14 5.664 1.932C5.28 1.716 4.848 1.608 4.368 1.608C3.552 1.608 2.892 1.864 2.388 2.376C1.892 2.896 1.644 3.56 1.644 4.368C1.644 5.168 1.892 5.828 2.388 6.348C2.892 6.86 3.552 7.116 4.368 7.116C4.848 7.116 5.28 7.012 5.664 6.804C6.056 6.588 6.352 6.296 6.552 5.928L7.98 6.756C7.62 7.364 7.116 7.848 6.468 8.208C5.828 8.56 5.128 8.736 4.368 8.736Z" fill="#1F2533"/>
<path d="M17.452 7.476C16.604 8.316 15.572 8.736 14.356 8.736C13.14 8.736 12.108 8.316 11.26 7.476C10.42 6.62 10 5.584 10 4.368C10 3.144 10.42 2.112 11.26 1.272C12.108 0.424 13.14 0 14.356 0C15.572 0 16.604 0.424 17.452 1.272C18.3 2.112 18.724 3.144 18.724 4.368C18.724 5.592 18.3 6.628 17.452 7.476ZM12.424 6.348C12.936 6.86 13.58 7.116 14.356 7.116C15.132 7.116 15.776 6.86 16.288 6.348C16.808 5.828 17.068 5.168 17.068 4.368C17.068 3.568 16.808 2.908 16.288 2.388C15.768 1.868 15.124 1.608 14.356 1.608C13.588 1.608 12.944 1.868 12.424 2.388C11.904 2.908 11.644 3.568 11.644 4.368C11.644 5.168 11.904 5.828 12.424 6.348Z" fill="#1F2533"/>
<path d="M27.516 0.168H29.22V8.568H27.576V3.12L25.212 7.02H25.02L22.656 3.132V8.568H21V0.168H22.704L25.116 4.14L27.516 0.168Z" fill="#1F2533"/>
<path d="M32.5 0.168H35.632C36.432 0.168 37.112 0.44 37.672 0.984C38.224 1.528 38.5 2.196 38.5 2.988C38.5 3.78 38.224 4.448 37.672 4.992C37.112 5.536 36.432 5.808 35.632 5.808H34.156V8.568H32.5V0.168ZM34.156 4.26H35.632C35.984 4.26 36.276 4.14 36.508 3.9C36.74 3.652 36.856 3.348 36.856 2.988C36.856 2.62 36.74 2.316 36.508 2.076C36.276 1.836 35.984 1.716 35.632 1.716H34.156V4.26Z" fill="#1F2533"/>
<path d="M47.548 8.568H45.748L45.244 7.056H41.896L41.392 8.568H39.604L42.544 0.168H44.596L47.548 8.568ZM43.576 2.076L42.424 5.508H44.728L43.576 2.076Z" fill="#1F2533"/>
<path d="M53.732 0.168H55.604L52.724 5.292V8.568H51.08V5.292L48.212 0.168H50.084L51.908 3.672L53.732 0.168Z" fill="#1F2533"/>
<path d="M59.76 5.1V6.984H63.3V8.568H58.104V0.168H63.24V1.752H59.76V3.54H62.94V5.1H59.76Z" fill="#1F2533"/>
<path d="M72.5 8.568H70.712L69.02 5.652H67.76V8.568H66.104V0.168H69.464C70.24 0.168 70.9 0.44 71.444 0.984C71.988 1.528 72.26 2.184 72.26 2.952C72.26 3.472 72.112 3.956 71.816 4.404C71.52 4.844 71.128 5.176 70.64 5.4L72.5 8.568ZM69.464 1.716H67.76V4.2H69.464C69.776 4.2 70.044 4.08 70.268 3.84C70.492 3.592 70.604 3.296 70.604 2.952C70.604 2.608 70.492 2.316 70.268 2.076C70.044 1.836 69.776 1.716 69.464 1.716Z" fill="#1F2533"/>
</svg>
