<svg width="156" height="57" viewBox="0 0 156 57" fill="none" xmlns="http://www.w3.org/2000/svg">
<path fill-rule="evenodd" clip-rule="evenodd" d="M64.1746 51.4644C56.64 48.4615 46.8728 42.1744 37.9547 28.9875C46.8728 15.8007 56.64 9.51361 64.1746 6.51067C68.0442 4.96846 71.3418 4.28589 73.6562 3.98792C74.8134 3.83894 75.7241 3.78619 76.3367 3.77015C76.643 3.76214 76.8746 3.7633 77.025 3.76619C77.1002 3.76763 77.1551 3.76951 77.1889 3.77088L77.2236 3.77244L77.226 3.77255L77.2274 3.77264L77.2284 3.7727L77.2287 3.77271C77.2455 3.77371 77.2623 3.7744 77.2791 3.77478L77.2795 3.77479L77.2801 3.7748L77.2884 3.77504L77.334 3.77661C77.3767 3.77823 77.4437 3.78111 77.5338 3.78602C77.7142 3.79583 77.9872 3.81373 78.3436 3.84577C79.0567 3.90988 80.1031 4.03048 81.4099 4.25585C84.0249 4.70682 87.6739 5.57572 91.7797 7.2451C99.7817 10.4986 109.518 16.7898 116.75 28.9875C109.518 41.1853 99.7817 47.4765 91.7797 50.73C87.6739 52.3994 84.0249 53.2683 81.4099 53.7192C80.1031 53.9446 79.0567 54.0652 78.3436 54.1293C77.9872 54.1614 77.7142 54.1793 77.5338 54.1891C77.4437 54.194 77.3767 54.1969 77.334 54.1985L77.2884 54.2001L77.2801 54.2003L77.2795 54.2003L77.2791 54.2003C77.2623 54.2007 77.2455 54.2014 77.2287 54.2024L77.2284 54.2024L77.2274 54.2025L77.226 54.2025L77.2236 54.2027L77.1889 54.2042L77.1492 54.2057C77.1172 54.2068 77.0757 54.2079 77.025 54.2089C76.8746 54.2118 76.643 54.213 76.3367 54.2049C75.7241 54.1889 74.8134 54.1362 73.6562 53.9872C71.3418 53.6892 68.0442 53.0066 64.1746 51.4644ZM13.1217 48.9114C19.6838 45.2278 27.8888 39.041 34.6209 28.9875C27.8888 18.9341 19.6838 12.7473 13.1217 9.0637C9.78403 7.19007 6.87544 5.96645 4.81004 5.21344C3.77765 4.83704 2.95696 4.5786 2.39994 4.41557C2.12147 4.33406 1.90902 4.27644 1.7691 4.23986C1.69914 4.22158 1.64732 4.20856 1.61447 4.20045L1.57951 4.19194L1.57361 4.19053L1.57318 4.19043C0.826721 4.01653 0.362428 3.27051 0.53611 2.52394C0.709826 1.77724 1.45598 1.31273 2.20269 1.48644L1.88815 2.83849C2.20269 1.48644 2.20332 1.48659 2.20403 1.48676L2.20583 1.48718L2.21084 1.48836L2.2264 1.49206L2.27946 1.50498C2.32448 1.51608 2.38865 1.53224 2.47117 1.55381C2.63619 1.59694 2.8746 1.66173 3.17982 1.75106C3.79019 1.92971 4.66818 2.20666 5.761 2.60509C7.94601 3.40171 10.994 4.68546 14.4807 6.64276C21.1297 10.3752 29.3891 16.5658 36.2896 26.5069C45.3566 13.4739 55.2889 7.06342 63.1467 3.93167C67.259 2.2927 70.7865 1.55817 73.3017 1.23436C74.5593 1.07244 75.5645 1.01312 76.2641 0.99481C76.6139 0.985653 76.8875 0.986746 77.0783 0.990408C77.1737 0.99224 77.2483 0.994714 77.3015 0.996873C77.3281 0.997952 77.3493 0.998952 77.365 0.999754L77.3713 0.99999C77.3877 1.00048 77.4103 1.00122 77.4391 1.00231C77.4967 1.00449 77.5789 1.00807 77.6847 1.01382C77.8961 1.02533 78.2017 1.04553 78.5922 1.08063C79.373 1.15082 80.4942 1.28066 81.8817 1.51994C84.6553 1.99826 88.5021 2.91546 92.8254 4.67327C100.982 7.9896 110.835 14.3007 118.345 26.2711C125.059 15.3133 133.534 9.03352 140.475 5.47829C144.127 3.60763 147.354 2.4915 149.677 1.84155C150.839 1.51645 151.777 1.30759 152.431 1.17914C152.757 1.1149 153.013 1.07074 153.191 1.04219C153.28 1.02791 153.35 1.01754 153.399 1.01051L153.456 1.00239L153.474 1.00009L153.479 0.999347L153.481 0.999079C153.482 0.998973 153.483 0.998874 153.659 2.37585L153.483 0.998874C154.244 0.901793 154.939 1.43958 155.036 2.20006C155.133 2.96054 154.595 3.65574 153.835 3.75282L153.83 3.75351L153.794 3.75856L153.762 3.76313L153.727 3.76847C153.7 3.77257 153.668 3.77752 153.631 3.78339C153.484 3.80703 153.26 3.84556 152.966 3.90333C152.378 4.01889 151.511 4.21129 150.425 4.51519C148.251 5.12324 145.203 6.17609 141.741 7.94931C134.914 11.4459 126.476 17.7446 119.957 28.9875C126.476 40.2305 134.914 46.5292 141.741 50.0258C145.203 51.799 148.251 52.8519 150.425 53.4599C151.511 53.7638 152.378 53.9562 152.966 54.0718C153.26 54.1295 153.484 54.1681 153.631 54.1917C153.668 54.1976 153.7 54.2025 153.727 54.2066C153.754 54.2108 153.776 54.2141 153.794 54.2165L153.83 54.2216L153.835 54.2223C154.595 54.3194 155.133 55.0146 155.036 55.775C154.939 56.5355 154.244 57.0733 153.483 56.9762L153.659 55.5993C153.483 56.9762 153.482 56.9761 153.481 56.976L153.479 56.9757L153.474 56.975L153.456 56.9727L153.399 56.9646C153.35 56.9576 153.28 56.9472 153.191 56.9329C153.013 56.9044 152.757 56.8602 152.431 56.796C151.777 56.6675 150.839 56.4586 149.677 56.1336C147.354 55.4836 144.127 54.3675 140.475 52.4968C133.534 48.9416 125.059 42.6618 118.345 31.704C110.835 43.6744 100.982 49.9855 92.8254 53.3018C88.5021 55.0596 84.6553 55.9768 81.8817 56.4552C80.4942 56.6944 79.373 56.8243 78.5922 56.8945C78.2017 56.9296 77.8961 56.9498 77.6847 56.9613C77.5789 56.967 77.4967 56.9706 77.4391 56.9728L77.4085 56.9739L77.3713 56.9751L77.365 56.9753C77.3493 56.9761 77.3281 56.9771 77.3015 56.9782C77.2483 56.9804 77.1737 56.9829 77.0783 56.9847C76.8875 56.9884 76.6139 56.9894 76.2641 56.9803C75.5645 56.962 74.5593 56.9027 73.3017 56.7407C70.7865 56.4169 67.259 55.6824 63.1467 54.0434C55.2889 50.9117 45.3566 44.5012 36.2896 31.4682C29.3891 41.4093 21.1297 47.5999 14.4807 51.3323C10.994 53.2896 7.94601 54.5734 5.761 55.37C4.66818 55.7684 3.79019 56.0454 3.17982 56.224C2.8746 56.3134 2.63619 56.3782 2.47117 56.4213C2.38865 56.4429 2.32448 56.459 2.27946 56.4701L2.2264 56.483L2.21084 56.4867L2.20583 56.4879L2.20403 56.4883C2.20332 56.4885 2.20269 56.4887 1.88815 55.1366L2.20269 56.4887C1.45598 56.6624 0.709826 56.1979 0.53611 55.4512C0.362428 54.7046 0.826721 53.9586 1.57318 53.7847L1.57361 53.7846L1.57951 53.7832L1.61447 53.7746C1.64732 53.7665 1.69914 53.7535 1.7691 53.7352C1.90902 53.6987 2.12147 53.641 2.39994 53.5595C2.95696 53.3965 3.77765 53.1381 4.81004 52.7617C6.87544 52.0086 9.78403 50.785 13.1217 48.9114ZM78.6989 8.40247C78.6989 7.63582 78.0774 7.01432 77.3108 7.01432C76.5441 7.01432 75.9226 7.63582 75.9226 8.40247V49.1214C75.9226 49.8881 76.5441 50.5096 77.3108 50.5096C78.0774 50.5096 78.6989 49.8881 78.6989 49.1214V8.40247ZM63.4293 10.716C64.196 10.716 64.8175 11.3375 64.8175 12.1042V45.4197C64.8175 46.1864 64.196 46.8079 63.4293 46.8079C62.6627 46.8079 62.0412 46.1864 62.0412 45.4197V12.1042C62.0412 11.3375 62.6627 10.716 63.4293 10.716ZM10.217 12.1042C10.217 11.3375 9.59554 10.716 8.82888 10.716C8.06223 10.716 7.44074 11.3375 7.44074 12.1042V45.4197C7.44074 46.1864 8.06223 46.8079 8.82888 46.8079C9.59554 46.8079 10.217 46.1864 10.217 45.4197V12.1042ZM49.5479 18.1195C50.3145 18.1195 50.936 18.741 50.936 19.5076V38.0163C50.936 38.7829 50.3145 39.4044 49.5479 39.4044C48.7812 39.4044 48.1597 38.7829 48.1597 38.0163V19.5076C48.1597 18.741 48.7812 18.1195 49.5479 18.1195ZM24.0985 19.5076C24.0985 18.741 23.477 18.1195 22.7104 18.1195C21.9437 18.1195 21.3222 18.741 21.3222 19.5076V38.0163C21.3222 38.7829 21.9437 39.4044 22.7104 39.4044C23.477 39.4044 24.0985 38.7829 24.0985 38.0163V19.5076ZM105.074 18.1195C105.84 18.1195 106.462 18.741 106.462 19.5076V38.0163C106.462 38.7829 105.84 39.4044 105.074 39.4044C104.307 39.4044 103.686 38.7829 103.686 38.0163V19.5076C103.686 18.741 104.307 18.1195 105.074 18.1195ZM134.225 19.5076C134.225 18.741 133.603 18.1195 132.837 18.1195C132.07 18.1195 131.449 18.741 131.449 19.5076V38.0163C131.449 38.7829 132.07 39.4044 132.837 39.4044C133.603 39.4044 134.225 38.7829 134.225 38.0163V19.5076ZM91.1923 10.716C91.9589 10.716 92.5804 11.3375 92.5804 12.1042V45.4197C92.5804 46.1864 91.9589 46.8079 91.1923 46.8079C90.4256 46.8079 89.8041 46.1864 89.8041 45.4197V12.1042C89.8041 11.3375 90.4256 10.716 91.1923 10.716ZM148.106 12.1042C148.106 11.3375 147.485 10.716 146.718 10.716C145.951 10.716 145.33 11.3375 145.33 12.1042V45.4197C145.33 46.1864 145.951 46.8079 146.718 46.8079C147.485 46.8079 148.106 46.1864 148.106 45.4197V12.1042Z" fill="#1F2533"/>
</svg>
