<svg width="575" height="350" viewBox="0 0 575 350" fill="none" xmlns="http://www.w3.org/2000/svg">
<path d="M382 0H575V195C575 195 516 175 526 119C536 63 500 49 453 40C406 31 382 0 382 0Z" fill="white"/>
<path d="M383 350H36V248C36 248 89 275 135 268C181 261 204.942 295.093 238 308C279 324.008 346.991 299.669 383 350Z" fill="white"/>
<path fill-rule="evenodd" clip-rule="evenodd" d="M64.1746 330.464C56.64 327.461 46.8728 321.174 37.9547 307.988C46.8728 294.801 56.64 288.514 64.1746 285.511C68.0442 283.968 71.3418 283.286 73.6562 282.988C74.8134 282.839 75.7241 282.786 76.3367 282.77C76.643 282.762 76.8746 282.763 77.025 282.766C77.1002 282.768 77.1551 282.77 77.1889 282.771L77.2236 282.772L77.226 282.773L77.2274 282.773L77.2284 282.773L77.2287 282.773C77.2455 282.774 77.2623 282.774 77.2791 282.775L77.2795 282.775L77.2801 282.775L77.2884 282.775L77.334 282.777C77.3767 282.778 77.4437 282.781 77.5338 282.786C77.7142 282.796 77.9872 282.814 78.3436 282.846C79.0567 282.91 80.1031 283.03 81.4099 283.256C84.0249 283.707 87.6739 284.576 91.7797 286.245C99.7817 289.499 109.518 295.79 116.75 307.988C109.518 320.185 99.7817 326.476 91.7797 329.73C87.6739 331.399 84.0249 332.268 81.4099 332.719C80.1031 332.945 79.0567 333.065 78.3436 333.129C77.9872 333.161 77.7142 333.179 77.5338 333.189C77.4437 333.194 77.3767 333.197 77.334 333.198L77.2884 333.2L77.2801 333.2L77.2795 333.2L77.2791 333.2C77.2623 333.201 77.2455 333.201 77.2287 333.202L77.2284 333.202L77.2274 333.202L77.226 333.203L77.2236 333.203L77.1889 333.204L77.1492 333.206C77.1172 333.207 77.0757 333.208 77.025 333.209C76.8746 333.212 76.643 333.213 76.3367 333.205C75.7241 333.189 74.8134 333.136 73.6562 332.987C71.3418 332.689 68.0442 332.007 64.1746 330.464ZM13.1217 327.911C19.6838 324.228 27.8888 318.041 34.6209 307.988C27.8888 297.934 19.6838 291.747 13.1217 288.064C9.78403 286.19 6.87544 284.966 4.81004 284.213C3.77765 283.837 2.95696 283.579 2.39994 283.416C2.12147 283.334 1.90902 283.276 1.7691 283.24C1.69914 283.222 1.64732 283.209 1.61447 283.2L1.57951 283.192L1.57361 283.191L1.57318 283.19C0.826721 283.017 0.362428 282.271 0.53611 281.524C0.709826 280.777 1.45598 280.313 2.20269 280.486L1.88815 281.838C2.20269 280.486 2.20332 280.487 2.20403 280.487L2.20583 280.487L2.21084 280.488L2.2264 280.492L2.27946 280.505C2.32448 280.516 2.38865 280.532 2.47117 280.554C2.63619 280.597 2.8746 280.662 3.17982 280.751C3.79019 280.93 4.66818 281.207 5.761 281.605C7.94601 282.402 10.994 283.685 14.4807 285.643C21.1297 289.375 29.3891 295.566 36.2896 305.507C45.3566 292.474 55.2889 286.063 63.1467 282.932C67.259 281.293 70.7865 280.558 73.3017 280.234C74.5593 280.072 75.5645 280.013 76.2641 279.995C76.6139 279.986 76.8875 279.987 77.0783 279.99C77.1737 279.992 77.2483 279.995 77.3015 279.997C77.3281 279.998 77.3493 279.999 77.365 280L77.3713 280C77.3877 280 77.4103 280.001 77.4391 280.002C77.4967 280.004 77.5789 280.008 77.6847 280.014C77.8961 280.025 78.2017 280.046 78.5922 280.081C79.373 280.151 80.4942 280.281 81.8817 280.52C84.6553 280.998 88.5021 281.915 92.8254 283.673C100.982 286.99 110.835 293.301 118.345 305.271C125.059 294.313 133.534 288.034 140.475 284.478C144.127 282.608 147.354 281.492 149.677 280.842C150.839 280.516 151.777 280.308 152.431 280.179C152.757 280.115 153.013 280.071 153.191 280.042C153.28 280.028 153.35 280.018 153.399 280.011L153.456 280.002L153.474 280L153.479 279.999L153.481 279.999C153.482 279.999 153.483 279.999 153.659 281.376L153.483 279.999C154.244 279.902 154.939 280.44 155.036 281.2C155.133 281.961 154.595 282.656 153.835 282.753L153.83 282.754L153.794 282.759L153.762 282.763L153.727 282.768C153.7 282.773 153.668 282.778 153.631 282.783C153.484 282.807 153.26 282.846 152.966 282.903C152.378 283.019 151.511 283.211 150.425 283.515C148.251 284.123 145.203 285.176 141.741 286.949C134.914 290.446 126.476 296.745 119.957 307.988C126.476 319.23 134.914 325.529 141.741 329.026C145.203 330.799 148.251 331.852 150.425 332.46C151.511 332.764 152.378 332.956 152.966 333.072C153.26 333.13 153.484 333.168 153.631 333.192C153.668 333.198 153.7 333.203 153.727 333.207C153.754 333.211 153.776 333.214 153.794 333.217L153.83 333.222L153.835 333.222C154.595 333.319 155.133 334.015 155.036 334.775C154.939 335.536 154.244 336.073 153.483 335.976L153.659 334.599C153.483 335.976 153.482 335.976 153.481 335.976L153.479 335.976L153.474 335.975L153.456 335.973L153.399 335.965C153.35 335.958 153.28 335.947 153.191 335.933C153.013 335.904 152.757 335.86 152.431 335.796C151.777 335.668 150.839 335.459 149.677 335.134C147.354 334.484 144.127 333.367 140.475 331.497C133.534 327.942 125.059 321.662 118.345 310.704C110.835 322.674 100.982 328.986 92.8254 332.302C88.5021 334.06 84.6553 334.977 81.8817 335.455C80.4942 335.694 79.373 335.824 78.5922 335.894C78.2017 335.93 77.8961 335.95 77.6847 335.961C77.5789 335.967 77.4967 335.971 77.4391 335.973L77.4085 335.974L77.3713 335.975L77.365 335.975C77.3493 335.976 77.3281 335.977 77.3015 335.978C77.2483 335.98 77.1737 335.983 77.0783 335.985C76.8875 335.988 76.6139 335.989 76.2641 335.98C75.5645 335.962 74.5593 335.903 73.3017 335.741C70.7865 335.417 67.259 334.682 63.1467 333.043C55.2889 329.912 45.3566 323.501 36.2896 310.468C29.3891 320.409 21.1297 326.6 14.4807 330.332C10.994 332.29 7.94601 333.573 5.761 334.37C4.66818 334.768 3.79019 335.045 3.17982 335.224C2.8746 335.313 2.63619 335.378 2.47117 335.421C2.38865 335.443 2.32448 335.459 2.27946 335.47L2.2264 335.483L2.21084 335.487L2.20583 335.488L2.20403 335.488C2.20332 335.489 2.20269 335.489 1.88815 334.137L2.20269 335.489C1.45598 335.662 0.709826 335.198 0.53611 334.451C0.362428 333.705 0.826721 332.959 1.57318 332.785L1.57361 332.785L1.57951 332.783L1.61447 332.775C1.64732 332.767 1.69914 332.754 1.7691 332.735C1.90902 332.699 2.12147 332.641 2.39994 332.56C2.95696 332.396 3.77765 332.138 4.81004 331.762C6.87544 331.009 9.78403 329.785 13.1217 327.911ZM78.6989 287.402C78.6989 286.636 78.0774 286.014 77.3108 286.014C76.5441 286.014 75.9226 286.636 75.9226 287.402V328.121C75.9226 328.888 76.5441 329.51 77.3108 329.51C78.0774 329.51 78.6989 328.888 78.6989 328.121V287.402ZM63.4293 289.716C64.196 289.716 64.8175 290.338 64.8175 291.104V324.42C64.8175 325.186 64.196 325.808 63.4293 325.808C62.6627 325.808 62.0412 325.186 62.0412 324.42V291.104C62.0412 290.338 62.6627 289.716 63.4293 289.716ZM10.217 291.104C10.217 290.338 9.59554 289.716 8.82888 289.716C8.06223 289.716 7.44074 290.338 7.44074 291.104V324.42C7.44074 325.186 8.06223 325.808 8.82888 325.808C9.59554 325.808 10.217 325.186 10.217 324.42V291.104ZM49.5479 297.119C50.3145 297.119 50.936 297.741 50.936 298.508V317.016C50.936 317.783 50.3145 318.404 49.5479 318.404C48.7812 318.404 48.1597 317.783 48.1597 317.016V298.508C48.1597 297.741 48.7812 297.119 49.5479 297.119ZM24.0985 298.508C24.0985 297.741 23.477 297.119 22.7104 297.119C21.9437 297.119 21.3222 297.741 21.3222 298.508V317.016C21.3222 317.783 21.9437 318.404 22.7104 318.404C23.477 318.404 24.0985 317.783 24.0985 317.016V298.508ZM105.074 297.119C105.84 297.119 106.462 297.741 106.462 298.508V317.016C106.462 317.783 105.84 318.404 105.074 318.404C104.307 318.404 103.686 317.783 103.686 317.016V298.508C103.686 297.741 104.307 297.119 105.074 297.119ZM134.225 298.508C134.225 297.741 133.603 297.119 132.837 297.119C132.07 297.119 131.449 297.741 131.449 298.508V317.016C131.449 317.783 132.07 318.404 132.837 318.404C133.603 318.404 134.225 317.783 134.225 317.016V298.508ZM91.1923 289.716C91.9589 289.716 92.5804 290.338 92.5804 291.104V324.42C92.5804 325.186 91.9589 325.808 91.1923 325.808C90.4256 325.808 89.8041 325.186 89.8041 324.42V291.104C89.8041 290.338 90.4256 289.716 91.1923 289.716ZM148.106 291.104C148.106 290.338 147.485 289.716 146.718 289.716C145.951 289.716 145.33 290.338 145.33 291.104V324.42C145.33 325.186 145.951 325.808 146.718 325.808C147.485 325.808 148.106 325.186 148.106 324.42V291.104Z" fill="#1F2533"/>
<path d="M108 53H128V87H108V53Z" fill="#7171F5"/>
<path fill-rule="evenodd" clip-rule="evenodd" d="M105 50H131V90H105V50ZM108 53V87H128V53H108Z" fill="#1F2533"/>
<path d="M85 77H105V111H85V77Z" fill="#7171F5"/>
<path fill-rule="evenodd" clip-rule="evenodd" d="M82 74H108V114H82V74ZM85 77V111H105V77H85Z" fill="#1F2533"/>
<path d="M85 114H351V232H85V114Z" fill="white"/>
<path fill-rule="evenodd" clip-rule="evenodd" d="M82 111H354V235H82V111ZM85 114V232H351V114H85Z" fill="#1F2533"/>
<path d="M108 90H351V208H108V90Z" fill="white"/>
<path fill-rule="evenodd" clip-rule="evenodd" d="M105 87H354V211H105V87ZM108 90V208H351V90H108Z" fill="#1F2533"/>
<path d="M131 69H351V184H131V69Z" fill="white"/>
<path fill-rule="evenodd" clip-rule="evenodd" d="M128 66H354V187H128V66ZM131 69V184H351V69H131Z" fill="#1F2533"/>
<path d="M131 32H351V66H131V32Z" fill="#7171F5"/>
<path fill-rule="evenodd" clip-rule="evenodd" d="M128 29H354V69H128V29ZM131 32V66H351V32H131Z" fill="#1F2533"/>
<path fill-rule="evenodd" clip-rule="evenodd" d="M170.093 90.5029C170.822 90.5482 171.412 91.1119 171.491 91.8379L178.053 152.203L188.541 108.153C188.708 107.452 189.349 106.969 190.069 107.002C190.789 107.035 191.383 107.575 191.485 108.288L194.301 128H201.24L206.29 121.113C206.624 120.659 207.183 120.429 207.74 120.519C208.296 120.609 208.755 121.003 208.928 121.539L212.974 134.084L216.252 129.168C216.53 128.751 216.998 128.5 217.5 128.5H268.802L277.037 92.1684C277.199 91.4562 277.849 90.9638 278.579 91.0021C279.308 91.0404 279.904 91.5983 279.99 92.3235L286.995 151.43L297.041 109.153C297.207 108.455 297.844 107.972 298.56 108.001C299.277 108.03 299.873 108.563 299.983 109.272L302.787 127.5H309.771L314.821 121.073C315.158 120.643 315.703 120.431 316.243 120.52C316.782 120.608 317.231 120.983 317.414 121.498L321.93 134.227L325.764 128.65C326.044 128.243 326.506 128 327 128H336.5V131H327.789L322.736 138.35C322.417 138.814 321.864 139.061 321.305 138.987C320.746 138.914 320.275 138.533 320.086 138.002L315.497 125.068L311.679 129.927C311.395 130.289 310.96 130.5 310.5 130.5H301.5C300.76 130.5 300.13 129.96 300.017 129.228L298.185 117.315L287.959 160.347C287.791 161.054 287.14 161.539 286.414 161.498C285.687 161.456 285.096 160.899 285.01 160.177L278.036 101.332L271.463 130.332C271.308 131.015 270.701 131.5 270 131.5H218.303L213.748 138.332C213.429 138.811 212.864 139.065 212.294 138.986C211.724 138.907 211.249 138.508 211.072 137.961L206.974 125.254L203.21 130.387C202.927 130.772 202.478 131 202 131H193C192.254 131 191.621 130.451 191.515 129.712L189.631 116.525L178.959 161.347C178.79 162.058 178.134 162.543 177.406 162.497C176.677 162.451 176.088 161.888 176.009 161.162L169.451 100.828L162.46 130.346C162.299 131.022 161.695 131.5 161 131.5H146V128.5H159.814L168.54 91.6543C168.709 90.9437 169.364 90.4575 170.093 90.5029Z" fill="#1F2533"/>
<path fill-rule="evenodd" clip-rule="evenodd" d="M316 44H308V52H316V44ZM305 41V55H319V41H305Z" fill="#1F2533"/>
<path d="M285 52H296V55H285V52Z" fill="#1F2533"/>
<path fill-rule="evenodd" clip-rule="evenodd" d="M335.621 48L339.561 44.0607L337.439 41.9393L333.5 45.8787L329.561 41.9393L327.439 44.0607L331.379 48L327.439 51.9393L329.561 54.0607L333.5 50.1213L337.439 54.0607L339.561 51.9393L335.621 48Z" fill="#1F2533"/>
<ellipse cx="422" cy="227" rx="95" ry="92" fill="#1F2533"/>
<path d="M510 227C510 276.706 469.706 317 420 317C370.294 317 330 276.706 330 227C330 177.294 370.294 137 420 137C469.706 137 510 177.294 510 227Z" fill="#7171F5"/>
<path fill-rule="evenodd" clip-rule="evenodd" d="M513 227C513 278.362 471.362 320 420 320C368.638 320 327 278.362 327 227C327 175.638 368.638 134 420 134C471.362 134 513 175.638 513 227ZM420 317C469.706 317 510 276.706 510 227C510 177.294 469.706 137 420 137C370.294 137 330 177.294 330 227C330 276.706 370.294 317 420 317Z" fill="#1F2533"/>
<circle cx="420" cy="227" r="70" fill="#F7F0FF"/>
<path d="M429.086 241.211C429.086 238.997 428.383 237.174 426.977 235.742C425.57 234.284 423.227 232.982 419.945 231.836C416.664 230.664 414.112 229.583 412.289 228.594C406.221 225.339 403.188 220.521 403.188 214.141C403.188 209.818 404.503 206.263 407.133 203.477C409.763 200.69 413.331 199.036 417.836 198.516V190H424.086V198.594C428.617 199.245 432.12 201.172 434.594 204.375C437.068 207.552 438.305 211.693 438.305 216.797H428.852C428.852 213.516 428.109 210.938 426.625 209.062C425.167 207.161 423.174 206.211 420.648 206.211C418.148 206.211 416.195 206.888 414.789 208.242C413.383 209.596 412.68 211.536 412.68 214.062C412.68 216.328 413.37 218.151 414.75 219.531C416.156 220.885 418.526 222.174 421.859 223.398C425.193 224.622 427.81 225.755 429.711 226.797C431.612 227.839 433.214 229.036 434.516 230.391C435.818 231.719 436.82 233.255 437.523 235C438.227 236.745 438.578 238.789 438.578 241.133C438.578 245.534 437.224 249.102 434.516 251.836C431.833 254.57 428.083 256.185 423.266 256.68V264.297H417.055V256.719C411.898 256.146 407.927 254.297 405.141 251.172C402.38 248.047 401 243.906 401 238.75H410.492C410.492 242.031 411.312 244.57 412.953 246.367C414.62 248.164 416.964 249.062 419.984 249.062C422.953 249.062 425.206 248.346 426.742 246.914C428.305 245.482 429.086 243.581 429.086 241.211Z" fill="#7171F5"/>
<circle cx="459.5" cy="174.5" r="1.5" fill="#1F2533"/>
<circle cx="459.5" cy="183.5" r="1.5" fill="#1F2533"/>
<circle cx="459.5" cy="193.5" r="1.5" fill="#1F2533"/>
<circle cx="469.5" cy="203.5" r="1.5" fill="#1F2533"/>
<circle cx="478.5" cy="203.5" r="1.5" fill="#1F2533"/>
<circle cx="459.5" cy="203.5" r="1.5" fill="#1F2533"/>
<circle cx="469.5" cy="212.5" r="1.5" fill="#1F2533"/>
<circle cx="469.5" cy="222.5" r="1.5" fill="#1F2533"/>
<circle cx="469.5" cy="231.5" r="1.5" fill="#1F2533"/>
<circle cx="469.5" cy="241.5" r="1.5" fill="#1F2533"/>
<circle cx="469.5" cy="251.5" r="1.5" fill="#1F2533"/>
<circle cx="459.5" cy="251.5" r="1.5" fill="#1F2533"/>
<circle cx="469.5" cy="260.5" r="1.5" fill="#1F2533"/>
<circle cx="469.5" cy="270.5" r="1.5" fill="#1F2533"/>
<circle cx="459.5" cy="260.5" r="1.5" fill="#1F2533"/>
<circle cx="459.5" cy="270.5" r="1.5" fill="#1F2533"/>
<circle cx="459.5" cy="279.5" r="1.5" fill="#1F2533"/>
<circle cx="478.5" cy="212.5" r="1.5" fill="#1F2533"/>
<circle cx="478.5" cy="222.5" r="1.5" fill="#1F2533"/>
<circle cx="478.5" cy="231.5" r="1.5" fill="#1F2533"/>
<circle cx="478.5" cy="241.5" r="1.5" fill="#1F2533"/>
<circle cx="478.5" cy="251.5" r="1.5" fill="#1F2533"/>
<circle cx="469.5" cy="183.5" r="1.5" fill="#1F2533"/>
<circle cx="469.5" cy="193.5" r="1.5" fill="#1F2533"/>
<ellipse cx="318" cy="277" rx="58" ry="60" fill="#1F2533"/>
<path d="M372 277C372 310.137 345.137 337 312 337C278.863 337 252 310.137 252 277C252 243.863 278.863 217 312 217C345.137 217 372 243.863 372 277Z" fill="#7171F5"/>
<path fill-rule="evenodd" clip-rule="evenodd" d="M312 335C344.033 335 370 309.033 370 277C370 244.967 344.033 219 312 219C279.967 219 254 244.967 254 277C254 309.033 279.967 335 312 335ZM312 337C345.137 337 372 310.137 372 277C372 243.863 345.137 217 312 217C278.863 217 252 243.863 252 277C252 310.137 278.863 337 312 337Z" fill="#1F2533"/>
<circle cx="312" cy="277" r="45" fill="#F7F0FF"/>
<circle cx="329.5" cy="241.5" r="1.5" fill="#1F2533"/>
<circle cx="329.5" cy="250.5" r="1.5" fill="#1F2533"/>
<circle cx="329.5" cy="259.5" r="1.5" fill="#1F2533"/>
<circle cx="338.5" cy="250.5" r="1.5" fill="#1F2533"/>
<circle cx="338.5" cy="259.5" r="1.5" fill="#1F2533"/>
<circle cx="338.5" cy="268.5" r="1.5" fill="#1F2533"/>
<circle cx="338.5" cy="277.5" r="1.5" fill="#1F2533"/>
<circle cx="338.5" cy="286.5" r="1.5" fill="#1F2533"/>
<circle cx="338.5" cy="295.5" r="1.5" fill="#1F2533"/>
<circle cx="347.5" cy="295.5" r="1.5" fill="#1F2533"/>
<circle cx="329.5" cy="295.5" r="1.5" fill="#1F2533"/>
<circle cx="338.5" cy="304.5" r="1.5" fill="#1F2533"/>
<circle cx="329.5" cy="304.5" r="1.5" fill="#1F2533"/>
<circle cx="329.5" cy="313.5" r="1.5" fill="#1F2533"/>
<circle cx="347.5" cy="259.5" r="1.5" fill="#1F2533"/>
<circle cx="347.5" cy="268.5" r="1.5" fill="#1F2533"/>
<circle cx="347.5" cy="277.5" r="1.5" fill="#1F2533"/>
<circle cx="347.5" cy="286.5" r="1.5" fill="#1F2533"/>
<path d="M317.554 286.007C317.554 284.623 317.114 283.484 316.235 282.589C315.356 281.677 313.892 280.864 311.841 280.147C309.79 279.415 308.195 278.74 307.056 278.121C303.263 276.087 301.367 273.076 301.367 269.088C301.367 266.386 302.189 264.164 303.833 262.423C305.477 260.681 307.707 259.648 310.522 259.322V254H314.429V259.371C317.261 259.778 319.45 260.982 320.996 262.984C322.542 264.97 323.315 267.558 323.315 270.748H317.407C317.407 268.697 316.943 267.086 316.016 265.914C315.104 264.726 313.859 264.132 312.28 264.132C310.718 264.132 309.497 264.555 308.618 265.401C307.739 266.248 307.3 267.46 307.3 269.039C307.3 270.455 307.731 271.594 308.594 272.457C309.473 273.303 310.954 274.109 313.037 274.874C315.12 275.639 316.756 276.347 317.944 276.998C319.132 277.649 320.133 278.398 320.947 279.244C321.761 280.074 322.388 281.035 322.827 282.125C323.267 283.215 323.486 284.493 323.486 285.958C323.486 288.709 322.64 290.938 320.947 292.647C319.271 294.356 316.927 295.366 313.916 295.675V300.436H310.034V295.699C306.812 295.341 304.329 294.186 302.588 292.232C300.863 290.279 300 287.691 300 284.469H305.933C305.933 286.52 306.445 288.106 307.471 289.229C308.512 290.353 309.977 290.914 311.865 290.914C313.721 290.914 315.129 290.466 316.089 289.571C317.065 288.676 317.554 287.488 317.554 286.007Z" fill="#7171F5"/>
<path fill-rule="evenodd" clip-rule="evenodd" d="M444.008 71.843C444.095 71.0191 444.833 70.4215 445.657 70.5082L455.157 71.5082C455.624 71.5574 456.042 71.8229 456.284 72.2253C456.527 72.6278 456.567 73.1207 456.393 73.5571L452.393 83.5571C452.085 84.3263 451.212 84.7004 450.443 84.3927C449.674 84.085 449.3 83.2121 449.607 82.4429L451.94 76.6101C451.135 77.0947 450.214 77.6463 449.19 78.2571C445.043 80.73 439.19 84.1728 432.367 88.0538C418.729 95.8111 401.181 105.338 385.617 112.367C384.862 112.708 383.974 112.372 383.633 111.617C383.292 110.862 383.628 109.974 384.383 109.633C399.819 102.662 417.271 93.1889 430.883 85.4462C437.685 81.5772 443.52 78.145 447.654 75.6804C448.684 75.0659 449.609 74.5117 450.417 74.0258L445.343 73.4918C444.519 73.405 443.922 72.6668 444.008 71.843Z" fill="#1F2533"/>
<path fill-rule="evenodd" clip-rule="evenodd" d="M458.008 36.843C458.095 36.0191 458.833 35.4215 459.657 35.5082L469.157 36.5082C469.624 36.5574 470.042 36.8229 470.284 37.2253C470.527 37.6278 470.567 38.1207 470.393 38.5571L466.393 48.5571C466.085 49.3263 465.212 49.7004 464.443 49.3927C463.674 49.085 463.3 48.2121 463.607 47.4429L465.94 41.6101C465.135 42.0947 464.214 42.6463 463.19 43.2571C459.043 45.73 453.19 49.1728 446.367 53.0538C432.729 60.8111 415.181 70.3382 399.617 77.3671C398.862 77.708 397.974 77.3724 397.633 76.6174C397.292 75.8624 397.628 74.9739 398.383 74.6329C413.819 67.6618 431.271 58.1889 444.883 50.4462C451.685 46.5772 457.52 43.145 461.654 40.6804C462.684 40.0659 463.609 39.5117 464.417 39.0258L459.343 38.4918C458.519 38.405 457.922 37.6668 458.008 36.843Z" fill="#7171F5"/>
</svg>
