<svg width="576" height="360" viewBox="0 0 576 360" fill="none" xmlns="http://www.w3.org/2000/svg">
<path d="M383 0H576V195C576 195 517 175 527 119C537 63 501 49 454 40C407 31 383 0 383 0Z" fill="white"/>
<path d="M384 350H37V248C37 248 90 275 136 268C182 261 205.942 295.093 239 308C280 324.008 347.991 299.669 384 350Z" fill="white"/>
<path fill-rule="evenodd" clip-rule="evenodd" d="M65.1746 330.464C57.64 327.461 47.8728 321.174 38.9547 307.988C47.8728 294.801 57.64 288.514 65.1746 285.511C69.0442 283.968 72.3418 283.286 74.6562 282.988C75.8134 282.839 76.7241 282.786 77.3367 282.77C77.643 282.762 77.8746 282.763 78.025 282.766C78.1002 282.768 78.1551 282.77 78.1889 282.771L78.2236 282.772L78.226 282.773L78.2274 282.773L78.2284 282.773L78.2287 282.773C78.2455 282.774 78.2623 282.774 78.2791 282.775L78.2795 282.775L78.2801 282.775L78.2884 282.775L78.334 282.777C78.3767 282.778 78.4437 282.781 78.5338 282.786C78.7142 282.796 78.9872 282.814 79.3436 282.846C80.0567 282.91 81.1031 283.03 82.4099 283.256C85.0249 283.707 88.6739 284.576 92.7797 286.245C100.782 289.499 110.518 295.79 117.75 307.988C110.518 320.185 100.782 326.476 92.7797 329.73C88.6739 331.399 85.0249 332.268 82.4099 332.719C81.1031 332.945 80.0567 333.065 79.3436 333.129C78.9872 333.161 78.7142 333.179 78.5338 333.189C78.4437 333.194 78.3767 333.197 78.334 333.198L78.2884 333.2L78.2801 333.2L78.2795 333.2L78.2791 333.2C78.2623 333.201 78.2455 333.201 78.2287 333.202L78.2284 333.202L78.2274 333.202L78.226 333.203L78.2236 333.203L78.1889 333.204L78.1492 333.206C78.1172 333.207 78.0757 333.208 78.025 333.209C77.8746 333.212 77.643 333.213 77.3367 333.205C76.7241 333.189 75.8134 333.136 74.6562 332.987C72.3418 332.689 69.0442 332.007 65.1746 330.464ZM14.1217 327.911C20.6838 324.228 28.8888 318.041 35.6209 307.988C28.8888 297.934 20.6838 291.747 14.1217 288.064C10.784 286.19 7.87544 284.966 5.81004 284.213C4.77765 283.837 3.95696 283.579 3.39994 283.416C3.12147 283.334 2.90902 283.276 2.7691 283.24C2.69914 283.222 2.64732 283.209 2.61447 283.2L2.57951 283.192L2.57361 283.191L2.57318 283.19C1.82672 283.017 1.36243 282.271 1.53611 281.524C1.70983 280.777 2.45598 280.313 3.20269 280.486L2.88815 281.838C3.20269 280.486 3.20332 280.487 3.20403 280.487L3.20583 280.487L3.21084 280.488L3.2264 280.492L3.27946 280.505C3.32448 280.516 3.38865 280.532 3.47117 280.554C3.63619 280.597 3.8746 280.662 4.17982 280.751C4.79019 280.93 5.66818 281.207 6.761 281.605C8.94601 282.402 11.994 283.685 15.4807 285.643C22.1297 289.375 30.3891 295.566 37.2896 305.507C46.3566 292.474 56.2889 286.063 64.1467 282.932C68.259 281.293 71.7865 280.558 74.3017 280.234C75.5593 280.072 76.5645 280.013 77.2641 279.995C77.6139 279.986 77.8875 279.987 78.0783 279.99C78.1737 279.992 78.2483 279.995 78.3015 279.997C78.3281 279.998 78.3493 279.999 78.365 280L78.3713 280C78.3877 280 78.4103 280.001 78.4391 280.002C78.4967 280.004 78.5789 280.008 78.6847 280.014C78.8961 280.025 79.2017 280.046 79.5922 280.081C80.373 280.151 81.4942 280.281 82.8817 280.52C85.6553 280.998 89.5021 281.915 93.8254 283.673C101.982 286.99 111.835 293.301 119.345 305.271C126.059 294.313 134.534 288.034 141.475 284.478C145.127 282.608 148.354 281.492 150.677 280.842C151.839 280.516 152.777 280.308 153.431 280.179C153.757 280.115 154.013 280.071 154.191 280.042C154.28 280.028 154.35 280.018 154.399 280.011L154.456 280.002L154.474 280L154.479 279.999L154.481 279.999C154.482 279.999 154.483 279.999 154.659 281.376L154.483 279.999C155.244 279.902 155.939 280.44 156.036 281.2C156.133 281.961 155.595 282.656 154.835 282.753L154.83 282.754L154.794 282.759L154.762 282.763L154.727 282.768C154.7 282.773 154.668 282.778 154.631 282.783C154.484 282.807 154.26 282.846 153.966 282.903C153.378 283.019 152.511 283.211 151.425 283.515C149.251 284.123 146.203 285.176 142.741 286.949C135.914 290.446 127.476 296.745 120.957 307.988C127.476 319.23 135.914 325.529 142.741 329.026C146.203 330.799 149.251 331.852 151.425 332.46C152.511 332.764 153.378 332.956 153.966 333.072C154.26 333.13 154.484 333.168 154.631 333.192C154.668 333.198 154.7 333.203 154.727 333.207C154.754 333.211 154.776 333.214 154.794 333.217L154.83 333.222L154.835 333.222C155.595 333.319 156.133 334.015 156.036 334.775C155.939 335.536 155.244 336.073 154.483 335.976L154.659 334.599C154.483 335.976 154.482 335.976 154.481 335.976L154.479 335.976L154.474 335.975L154.456 335.973L154.399 335.965C154.35 335.958 154.28 335.947 154.191 335.933C154.013 335.904 153.757 335.86 153.431 335.796C152.777 335.668 151.839 335.459 150.677 335.134C148.354 334.484 145.127 333.367 141.475 331.497C134.534 327.942 126.059 321.662 119.345 310.704C111.835 322.674 101.982 328.986 93.8254 332.302C89.5021 334.06 85.6553 334.977 82.8817 335.455C81.4942 335.694 80.373 335.824 79.5922 335.894C79.2017 335.93 78.8961 335.95 78.6847 335.961C78.5789 335.967 78.4967 335.971 78.4391 335.973L78.4085 335.974L78.3713 335.975L78.365 335.975C78.3493 335.976 78.3281 335.977 78.3015 335.978C78.2483 335.98 78.1737 335.983 78.0783 335.985C77.8875 335.988 77.6139 335.989 77.2641 335.98C76.5645 335.962 75.5593 335.903 74.3017 335.741C71.7865 335.417 68.259 334.682 64.1467 333.043C56.2889 329.912 46.3566 323.501 37.2896 310.468C30.3891 320.409 22.1297 326.6 15.4807 330.332C11.994 332.29 8.94601 333.573 6.761 334.37C5.66818 334.768 4.79019 335.045 4.17982 335.224C3.8746 335.313 3.63619 335.378 3.47117 335.421C3.38865 335.443 3.32448 335.459 3.27946 335.47L3.2264 335.483L3.21084 335.487L3.20583 335.488L3.20403 335.488C3.20332 335.489 3.20269 335.489 2.88815 334.137L3.20269 335.489C2.45598 335.662 1.70983 335.198 1.53611 334.451C1.36243 333.705 1.82672 332.959 2.57318 332.785L2.57361 332.785L2.57951 332.783L2.61447 332.775C2.64732 332.767 2.69914 332.754 2.7691 332.735C2.90902 332.699 3.12147 332.641 3.39994 332.56C3.95696 332.396 4.77765 332.138 5.81004 331.762C7.87544 331.009 10.784 329.785 14.1217 327.911ZM79.6989 287.402C79.6989 286.636 79.0774 286.014 78.3108 286.014C77.5441 286.014 76.9226 286.636 76.9226 287.402V328.121C76.9226 328.888 77.5441 329.51 78.3108 329.51C79.0774 329.51 79.6989 328.888 79.6989 328.121V287.402ZM64.4293 289.716C65.196 289.716 65.8175 290.338 65.8175 291.104V324.42C65.8175 325.186 65.196 325.808 64.4293 325.808C63.6627 325.808 63.0412 325.186 63.0412 324.42V291.104C63.0412 290.338 63.6627 289.716 64.4293 289.716ZM11.217 291.104C11.217 290.338 10.5955 289.716 9.82888 289.716C9.06223 289.716 8.44074 290.338 8.44074 291.104V324.42C8.44074 325.186 9.06223 325.808 9.82888 325.808C10.5955 325.808 11.217 325.186 11.217 324.42V291.104ZM50.5479 297.119C51.3145 297.119 51.936 297.741 51.936 298.508V317.016C51.936 317.783 51.3145 318.404 50.5479 318.404C49.7812 318.404 49.1597 317.783 49.1597 317.016V298.508C49.1597 297.741 49.7812 297.119 50.5479 297.119ZM25.0985 298.508C25.0985 297.741 24.477 297.119 23.7104 297.119C22.9437 297.119 22.3222 297.741 22.3222 298.508V317.016C22.3222 317.783 22.9437 318.404 23.7104 318.404C24.477 318.404 25.0985 317.783 25.0985 317.016V298.508ZM106.074 297.119C106.84 297.119 107.462 297.741 107.462 298.508V317.016C107.462 317.783 106.84 318.404 106.074 318.404C105.307 318.404 104.686 317.783 104.686 317.016V298.508C104.686 297.741 105.307 297.119 106.074 297.119ZM135.225 298.508C135.225 297.741 134.603 297.119 133.837 297.119C133.07 297.119 132.449 297.741 132.449 298.508V317.016C132.449 317.783 133.07 318.404 133.837 318.404C134.603 318.404 135.225 317.783 135.225 317.016V298.508ZM92.1923 289.716C92.9589 289.716 93.5804 290.338 93.5804 291.104V324.42C93.5804 325.186 92.9589 325.808 92.1923 325.808C91.4256 325.808 90.8041 325.186 90.8041 324.42V291.104C90.8041 290.338 91.4256 289.716 92.1923 289.716ZM149.106 291.104C149.106 290.338 148.485 289.716 147.718 289.716C146.951 289.716 146.33 290.338 146.33 291.104V324.42C146.33 325.186 146.951 325.808 147.718 325.808C148.485 325.808 149.106 325.186 149.106 324.42V291.104Z" fill="#1F2533"/>
<path d="M109 53H129V87H109V53Z" fill="#7171F5"/>
<path fill-rule="evenodd" clip-rule="evenodd" d="M106 50H132V90H106V50ZM109 53V87H129V53H109Z" fill="#1F2533"/>
<path d="M86 77H106V111H86V77Z" fill="#7171F5"/>
<path fill-rule="evenodd" clip-rule="evenodd" d="M83 74H109V114H83V74ZM86 77V111H106V77H86Z" fill="#1F2533"/>
<path d="M86 114H352V232H86V114Z" fill="white"/>
<path fill-rule="evenodd" clip-rule="evenodd" d="M83 111H355V235H83V111ZM86 114V232H352V114H86Z" fill="#1F2533"/>
<path d="M109 90H352V208H109V90Z" fill="white"/>
<path fill-rule="evenodd" clip-rule="evenodd" d="M106 87H355V211H106V87ZM109 90V208H352V90H109Z" fill="#1F2533"/>
<path d="M132 69H352V184H132V69Z" fill="white"/>
<path fill-rule="evenodd" clip-rule="evenodd" d="M129 66H355V187H129V66ZM132 69V184H352V69H132Z" fill="#1F2533"/>
<path d="M132 32H352V66H132V32Z" fill="#7171F5"/>
<path fill-rule="evenodd" clip-rule="evenodd" d="M129 29H355V69H129V29ZM132 32V66H352V32H132Z" fill="#1F2533"/>
<path fill-rule="evenodd" clip-rule="evenodd" d="M171.093 90.5029C171.822 90.5482 172.412 91.1119 172.491 91.8379L179.053 152.203L189.541 108.153C189.708 107.452 190.349 106.969 191.069 107.002C191.789 107.035 192.383 107.575 192.485 108.288L195.301 128H202.24L207.29 121.113C207.624 120.659 208.183 120.429 208.74 120.519C209.296 120.609 209.755 121.003 209.928 121.539L213.974 134.084L217.252 129.168C217.53 128.751 217.998 128.5 218.5 128.5H269.802L278.037 92.1684C278.199 91.4562 278.849 90.9638 279.579 91.0021C280.308 91.0404 280.904 91.5983 280.99 92.3235L287.995 151.43L298.041 109.153C298.207 108.455 298.844 107.972 299.56 108.001C300.277 108.03 300.873 108.563 300.983 109.272L303.787 127.5H310.771L315.821 121.073C316.158 120.643 316.703 120.431 317.243 120.52C317.782 120.608 318.231 120.983 318.414 121.498L322.93 134.227L326.764 128.65C327.044 128.243 327.506 128 328 128H337.5V131H328.789L323.736 138.35C323.417 138.814 322.864 139.061 322.305 138.987C321.746 138.914 321.275 138.533 321.086 138.002L316.497 125.068L312.679 129.927C312.395 130.289 311.96 130.5 311.5 130.5H302.5C301.76 130.5 301.13 129.96 301.017 129.228L299.185 117.315L288.959 160.347C288.791 161.054 288.14 161.539 287.414 161.498C286.687 161.456 286.096 160.899 286.01 160.177L279.036 101.332L272.463 130.332C272.308 131.015 271.701 131.5 271 131.5H219.303L214.748 138.332C214.429 138.811 213.864 139.065 213.294 138.986C212.724 138.907 212.249 138.508 212.072 137.961L207.974 125.254L204.21 130.387C203.927 130.772 203.478 131 203 131H194C193.254 131 192.621 130.451 192.515 129.712L190.631 116.525L179.959 161.347C179.79 162.058 179.134 162.543 178.406 162.497C177.677 162.451 177.088 161.888 177.009 161.162L170.451 100.828L163.46 130.346C163.299 131.022 162.695 131.5 162 131.5H147V128.5H160.814L169.54 91.6543C169.709 90.9437 170.364 90.4575 171.093 90.5029Z" fill="#1F2533"/>
<path fill-rule="evenodd" clip-rule="evenodd" d="M317 44H309V52H317V44ZM306 41V55H320V41H306Z" fill="#1F2533"/>
<path d="M286 52H297V55H286V52Z" fill="#1F2533"/>
<path fill-rule="evenodd" clip-rule="evenodd" d="M336.621 48L340.561 44.0607L338.439 41.9393L334.5 45.8787L330.561 41.9393L328.439 44.0607L332.379 48L328.439 51.9393L330.561 54.0607L334.5 50.1213L338.439 54.0607L340.561 51.9393L336.621 48Z" fill="#1F2533"/>
<ellipse cx="423" cy="227" rx="95" ry="92" fill="#1F2533"/>
<path d="M511 227C511 276.706 470.706 317 421 317C371.294 317 331 276.706 331 227C331 177.294 371.294 137 421 137C470.706 137 511 177.294 511 227Z" fill="#7171F5"/>
<path fill-rule="evenodd" clip-rule="evenodd" d="M514 227C514 278.362 472.362 320 421 320C369.638 320 328 278.362 328 227C328 175.638 369.638 134 421 134C472.362 134 514 175.638 514 227ZM421 317C470.706 317 511 276.706 511 227C511 177.294 470.706 137 421 137C371.294 137 331 177.294 331 227C331 276.706 371.294 317 421 317Z" fill="#1F2533"/>
<circle cx="421" cy="227" r="70" fill="#F7F0FF"/>
<path d="M430.086 241.211C430.086 238.997 429.383 237.174 427.977 235.742C426.57 234.284 424.227 232.982 420.945 231.836C417.664 230.664 415.112 229.583 413.289 228.594C407.221 225.339 404.188 220.521 404.188 214.141C404.188 209.818 405.503 206.263 408.133 203.477C410.763 200.69 414.331 199.036 418.836 198.516V190H425.086V198.594C429.617 199.245 433.12 201.172 435.594 204.375C438.068 207.552 439.305 211.693 439.305 216.797H429.852C429.852 213.516 429.109 210.938 427.625 209.062C426.167 207.161 424.174 206.211 421.648 206.211C419.148 206.211 417.195 206.888 415.789 208.242C414.383 209.596 413.68 211.536 413.68 214.062C413.68 216.328 414.37 218.151 415.75 219.531C417.156 220.885 419.526 222.174 422.859 223.398C426.193 224.622 428.81 225.755 430.711 226.797C432.612 227.839 434.214 229.036 435.516 230.391C436.818 231.719 437.82 233.255 438.523 235C439.227 236.745 439.578 238.789 439.578 241.133C439.578 245.534 438.224 249.102 435.516 251.836C432.833 254.57 429.083 256.185 424.266 256.68V264.297H418.055V256.719C412.898 256.146 408.927 254.297 406.141 251.172C403.38 248.047 402 243.906 402 238.75H411.492C411.492 242.031 412.312 244.57 413.953 246.367C415.62 248.164 417.964 249.062 420.984 249.062C423.953 249.062 426.206 248.346 427.742 246.914C429.305 245.482 430.086 243.581 430.086 241.211Z" fill="#7171F5"/>
<circle cx="460.5" cy="174.5" r="1.5" fill="#1F2533"/>
<circle cx="460.5" cy="183.5" r="1.5" fill="#1F2533"/>
<circle cx="460.5" cy="193.5" r="1.5" fill="#1F2533"/>
<circle cx="470.5" cy="203.5" r="1.5" fill="#1F2533"/>
<circle cx="479.5" cy="203.5" r="1.5" fill="#1F2533"/>
<circle cx="460.5" cy="203.5" r="1.5" fill="#1F2533"/>
<circle cx="470.5" cy="212.5" r="1.5" fill="#1F2533"/>
<circle cx="470.5" cy="222.5" r="1.5" fill="#1F2533"/>
<circle cx="470.5" cy="231.5" r="1.5" fill="#1F2533"/>
<circle cx="470.5" cy="241.5" r="1.5" fill="#1F2533"/>
<circle cx="470.5" cy="251.5" r="1.5" fill="#1F2533"/>
<circle cx="460.5" cy="251.5" r="1.5" fill="#1F2533"/>
<circle cx="470.5" cy="260.5" r="1.5" fill="#1F2533"/>
<circle cx="470.5" cy="270.5" r="1.5" fill="#1F2533"/>
<circle cx="460.5" cy="260.5" r="1.5" fill="#1F2533"/>
<circle cx="460.5" cy="270.5" r="1.5" fill="#1F2533"/>
<circle cx="460.5" cy="279.5" r="1.5" fill="#1F2533"/>
<circle cx="479.5" cy="212.5" r="1.5" fill="#1F2533"/>
<circle cx="479.5" cy="222.5" r="1.5" fill="#1F2533"/>
<circle cx="479.5" cy="231.5" r="1.5" fill="#1F2533"/>
<circle cx="479.5" cy="241.5" r="1.5" fill="#1F2533"/>
<circle cx="479.5" cy="251.5" r="1.5" fill="#1F2533"/>
<circle cx="470.5" cy="183.5" r="1.5" fill="#1F2533"/>
<circle cx="470.5" cy="193.5" r="1.5" fill="#1F2533"/>
<ellipse cx="319" cy="277" rx="58" ry="60" fill="#1F2533"/>
<path d="M373 277C373 310.137 346.137 337 313 337C279.863 337 253 310.137 253 277C253 243.863 279.863 217 313 217C346.137 217 373 243.863 373 277Z" fill="#7171F5"/>
<path fill-rule="evenodd" clip-rule="evenodd" d="M313 335C345.033 335 371 309.033 371 277C371 244.967 345.033 219 313 219C280.967 219 255 244.967 255 277C255 309.033 280.967 335 313 335ZM313 337C346.137 337 373 310.137 373 277C373 243.863 346.137 217 313 217C279.863 217 253 243.863 253 277C253 310.137 279.863 337 313 337Z" fill="#1F2533"/>
<circle cx="313" cy="277" r="45" fill="#F7F0FF"/>
<circle cx="330.5" cy="241.5" r="1.5" fill="#1F2533"/>
<circle cx="330.5" cy="250.5" r="1.5" fill="#1F2533"/>
<circle cx="330.5" cy="259.5" r="1.5" fill="#1F2533"/>
<circle cx="339.5" cy="250.5" r="1.5" fill="#1F2533"/>
<circle cx="339.5" cy="259.5" r="1.5" fill="#1F2533"/>
<circle cx="339.5" cy="268.5" r="1.5" fill="#1F2533"/>
<circle cx="339.5" cy="277.5" r="1.5" fill="#1F2533"/>
<circle cx="339.5" cy="286.5" r="1.5" fill="#1F2533"/>
<circle cx="339.5" cy="295.5" r="1.5" fill="#1F2533"/>
<circle cx="348.5" cy="295.5" r="1.5" fill="#1F2533"/>
<circle cx="330.5" cy="295.5" r="1.5" fill="#1F2533"/>
<circle cx="339.5" cy="304.5" r="1.5" fill="#1F2533"/>
<circle cx="330.5" cy="304.5" r="1.5" fill="#1F2533"/>
<circle cx="330.5" cy="313.5" r="1.5" fill="#1F2533"/>
<circle cx="348.5" cy="259.5" r="1.5" fill="#1F2533"/>
<circle cx="348.5" cy="268.5" r="1.5" fill="#1F2533"/>
<circle cx="348.5" cy="277.5" r="1.5" fill="#1F2533"/>
<circle cx="348.5" cy="286.5" r="1.5" fill="#1F2533"/>
<path d="M318.554 286.007C318.554 284.623 318.114 283.484 317.235 282.589C316.356 281.677 314.892 280.864 312.841 280.147C310.79 279.415 309.195 278.74 308.056 278.121C304.263 276.087 302.367 273.076 302.367 269.088C302.367 266.386 303.189 264.164 304.833 262.423C306.477 260.681 308.707 259.648 311.522 259.322V254H315.429V259.371C318.261 259.778 320.45 260.982 321.996 262.984C323.542 264.97 324.315 267.558 324.315 270.748H318.407C318.407 268.697 317.943 267.086 317.016 265.914C316.104 264.726 314.859 264.132 313.28 264.132C311.718 264.132 310.497 264.555 309.618 265.401C308.739 266.248 308.3 267.46 308.3 269.039C308.3 270.455 308.731 271.594 309.594 272.457C310.473 273.303 311.954 274.109 314.037 274.874C316.12 275.639 317.756 276.347 318.944 276.998C320.132 277.649 321.133 278.398 321.947 279.244C322.761 280.074 323.388 281.035 323.827 282.125C324.267 283.215 324.486 284.493 324.486 285.958C324.486 288.709 323.64 290.938 321.947 292.647C320.271 294.356 317.927 295.366 314.916 295.675V300.436H311.034V295.699C307.812 295.341 305.329 294.186 303.588 292.232C301.863 290.279 301 287.691 301 284.469H306.933C306.933 286.52 307.445 288.106 308.471 289.229C309.512 290.353 310.977 290.914 312.865 290.914C314.721 290.914 316.129 290.466 317.089 289.571C318.065 288.676 318.554 287.488 318.554 286.007Z" fill="#7171F5"/>
<path fill-rule="evenodd" clip-rule="evenodd" d="M445.008 71.843C445.095 71.0191 445.833 70.4215 446.657 70.5082L456.157 71.5082C456.624 71.5574 457.042 71.8229 457.284 72.2253C457.527 72.6278 457.567 73.1207 457.393 73.5571L453.393 83.5571C453.085 84.3263 452.212 84.7004 451.443 84.3927C450.674 84.085 450.3 83.2121 450.607 82.4429L452.94 76.6101C452.135 77.0947 451.214 77.6463 450.19 78.2571C446.043 80.73 440.19 84.1728 433.367 88.0538C419.729 95.8111 402.181 105.338 386.617 112.367C385.862 112.708 384.974 112.372 384.633 111.617C384.292 110.862 384.628 109.974 385.383 109.633C400.819 102.662 418.271 93.1889 431.883 85.4462C438.685 81.5772 444.52 78.145 448.654 75.6804C449.684 75.0659 450.609 74.5117 451.417 74.0258L446.343 73.4918C445.519 73.405 444.922 72.6668 445.008 71.843Z" fill="#1F2533"/>
<path fill-rule="evenodd" clip-rule="evenodd" d="M459.008 36.843C459.095 36.0191 459.833 35.4215 460.657 35.5082L470.157 36.5082C470.624 36.5574 471.042 36.8229 471.284 37.2253C471.527 37.6278 471.567 38.1207 471.393 38.5571L467.393 48.5571C467.085 49.3263 466.212 49.7004 465.443 49.3927C464.674 49.085 464.3 48.2121 464.607 47.4429L466.94 41.6101C466.135 42.0947 465.214 42.6463 464.19 43.2571C460.043 45.73 454.19 49.1728 447.367 53.0538C433.729 60.8111 416.181 70.3382 400.617 77.3671C399.862 77.708 398.974 77.3724 398.633 76.6174C398.292 75.8624 398.628 74.9739 399.383 74.6329C414.819 67.6618 432.271 58.1889 445.883 50.4462C452.685 46.5772 458.52 43.145 462.654 40.6804C463.684 40.0659 464.609 39.5117 465.417 39.0258L460.343 38.4918C459.519 38.405 458.922 37.6668 459.008 36.843Z" fill="#7171F5"/>
</svg>
