<svg width="124" height="120" viewBox="0 0 124 120" fill="none" xmlns="http://www.w3.org/2000/svg">
<ellipse cx="66" cy="60" rx="58" ry="60" fill="#1F2533"/>
<path d="M120 60C120 93.1371 93.1371 120 60 120C26.8629 120 0 93.1371 0 60C0 26.8629 26.8629 0 60 0C93.1371 0 120 26.8629 120 60Z" fill="#7171F5"/>
<path fill-rule="evenodd" clip-rule="evenodd" d="M60 118C92.0325 118 118 92.0325 118 60C118 27.9675 92.0325 2 60 2C27.9675 2 2 27.9675 2 60C2 92.0325 27.9675 118 60 118ZM60 120C93.1371 120 120 93.1371 120 60C120 26.8629 93.1371 0 60 0C26.8629 0 0 26.8629 0 60C0 93.1371 26.8629 120 60 120Z" fill="#1F2533"/>
<circle cx="60" cy="60" r="45" fill="#F7F0FF"/>
<circle cx="77.5" cy="24.5" r="1.5" fill="#1F2533"/>
<circle cx="77.5" cy="33.5" r="1.5" fill="#1F2533"/>
<circle cx="77.5" cy="42.5" r="1.5" fill="#1F2533"/>
<circle cx="86.5" cy="33.5" r="1.5" fill="#1F2533"/>
<circle cx="86.5" cy="42.5" r="1.5" fill="#1F2533"/>
<circle cx="86.5" cy="51.5" r="1.5" fill="#1F2533"/>
<circle cx="86.5" cy="60.5" r="1.5" fill="#1F2533"/>
<circle cx="86.5" cy="69.5" r="1.5" fill="#1F2533"/>
<circle cx="86.5" cy="78.5" r="1.5" fill="#1F2533"/>
<circle cx="95.5" cy="78.5" r="1.5" fill="#1F2533"/>
<circle cx="77.5" cy="78.5" r="1.5" fill="#1F2533"/>
<circle cx="86.5" cy="87.5" r="1.5" fill="#1F2533"/>
<circle cx="77.5" cy="87.5" r="1.5" fill="#1F2533"/>
<circle cx="77.5" cy="96.5" r="1.5" fill="#1F2533"/>
<circle cx="95.5" cy="42.5" r="1.5" fill="#1F2533"/>
<circle cx="95.5" cy="51.5" r="1.5" fill="#1F2533"/>
<circle cx="95.5" cy="60.5" r="1.5" fill="#1F2533"/>
<circle cx="95.5" cy="69.5" r="1.5" fill="#1F2533"/>
<path d="M65.5537 69.0068C65.5537 67.6234 65.1143 66.484 64.2354 65.5889C63.3564 64.6774 61.8916 63.8636 59.8408 63.1475C57.79 62.415 56.195 61.7396 55.0557 61.1211C51.2633 59.0866 49.3672 56.0755 49.3672 52.0879C49.3672 49.3861 50.1891 47.1644 51.833 45.4229C53.4769 43.6813 55.7067 42.6478 58.5225 42.3223V37H62.4287V42.3711C65.2607 42.778 67.4499 43.9824 68.9961 45.9844C70.5423 47.9701 71.3154 50.5579 71.3154 53.748H65.4072C65.4072 51.6973 64.9434 50.0859 64.0156 48.9141C63.1042 47.7259 61.859 47.1318 60.2803 47.1318C58.7178 47.1318 57.4971 47.555 56.6182 48.4014C55.7393 49.2477 55.2998 50.4603 55.2998 52.0391C55.2998 53.4551 55.7311 54.5944 56.5938 55.457C57.4727 56.3034 58.9538 57.109 61.0371 57.874C63.1204 58.639 64.7562 59.347 65.9443 59.998C67.1325 60.6491 68.1335 61.3978 68.9473 62.2441C69.7611 63.0742 70.3877 64.0345 70.8271 65.125C71.2666 66.2155 71.4863 67.4932 71.4863 68.958C71.4863 71.7087 70.64 73.9385 68.9473 75.6475C67.2708 77.3564 64.9271 78.3656 61.916 78.6748V83.4355H58.0342V78.6992C54.8115 78.3411 52.3294 77.1855 50.5879 75.2324C48.8626 73.2793 48 70.6914 48 67.4688H53.9326C53.9326 69.5195 54.4453 71.1064 55.4707 72.2295C56.5124 73.3525 57.9772 73.9141 59.8652 73.9141C61.7207 73.9141 63.1286 73.4665 64.0889 72.5713C65.0654 71.6761 65.5537 70.488 65.5537 69.0068Z" fill="#7171F5"/>
</svg>
