<svg width="272" height="206" viewBox="0 0 272 206" fill="none" xmlns="http://www.w3.org/2000/svg">
<path d="M26 24H46V58H26V24Z" fill="#7171F5"/>
<path fill-rule="evenodd" clip-rule="evenodd" d="M23 21H49V61H23V21ZM26 24V58H46V24H26Z" fill="#1F2533"/>
<path d="M3 48H23V82H3V48Z" fill="#7171F5"/>
<path fill-rule="evenodd" clip-rule="evenodd" d="M0 45H26V85H0V45ZM3 48V82H23V48H3Z" fill="#1F2533"/>
<path d="M3 85H269V203H3V85Z" fill="white"/>
<path fill-rule="evenodd" clip-rule="evenodd" d="M0 82H272V206H0V82ZM3 85V203H269V85H3Z" fill="#1F2533"/>
<path d="M26 61H269V179H26V61Z" fill="white"/>
<path fill-rule="evenodd" clip-rule="evenodd" d="M23 58H272V182H23V58ZM26 61V179H269V61H26Z" fill="#1F2533"/>
<path d="M49 40H269V155H49V40Z" fill="white"/>
<path fill-rule="evenodd" clip-rule="evenodd" d="M46 37H272V158H46V37ZM49 40V155H269V40H49Z" fill="#1F2533"/>
<path d="M49 3H269V37H49V3Z" fill="#7171F5"/>
<path fill-rule="evenodd" clip-rule="evenodd" d="M46 0H272V40H46V0ZM49 3V37H269V3H49Z" fill="#1F2533"/>
<path fill-rule="evenodd" clip-rule="evenodd" d="M88.0932 61.5029C88.822 61.5482 89.4123 62.1119 89.4912 62.8379L96.0526 123.203L106.541 79.1526C106.708 78.4517 107.349 77.9685 108.069 78.0016C108.789 78.0347 109.383 78.5747 109.485 79.2879L112.301 99H119.24L124.29 92.113C124.624 91.6586 125.183 91.4293 125.74 91.5192C126.296 91.6092 126.755 92.0033 126.928 92.5395L130.974 105.084L134.252 100.168C134.53 99.7507 134.998 99.5 135.5 99.5H186.802L195.037 63.1684C195.199 62.4562 195.849 61.9638 196.579 62.0021C197.308 62.0404 197.904 62.5983 197.99 63.3235L204.995 122.43L215.041 80.1532C215.207 79.4551 215.844 78.9723 216.56 79.0012C217.277 79.0301 217.873 79.5627 217.983 80.2719L220.787 98.5H227.771L232.821 92.0733C233.158 91.6434 233.703 91.4313 234.243 91.5198C234.782 91.6082 235.231 91.9832 235.414 92.4984L239.93 105.227L243.764 99.6502C244.044 99.2432 244.506 99 245 99H254.5V102H245.789L240.736 109.35C240.417 109.814 239.864 110.061 239.305 109.987C238.746 109.914 238.275 109.533 238.086 109.002L233.497 96.068L229.679 100.927C229.395 101.289 228.96 101.5 228.5 101.5H219.5C218.76 101.5 218.13 100.96 218.017 100.228L216.185 88.3152L205.959 131.347C205.791 132.054 205.14 132.539 204.414 132.498C203.687 132.456 203.096 131.899 203.01 131.177L196.036 72.3316L189.463 101.332C189.308 102.015 188.701 102.5 188 102.5H136.303L131.748 109.332C131.429 109.811 130.864 110.065 130.294 109.986C129.724 109.907 129.249 109.508 129.072 108.961L124.974 96.2543L121.21 101.387C120.927 101.772 120.478 102 120 102H111C110.254 102 109.621 101.451 109.515 100.712L107.631 87.525L96.9592 132.347C96.7901 133.058 96.1345 133.543 95.406 133.497C94.6775 133.451 94.0877 132.888 94.0088 132.162L87.4507 71.8278L80.4596 101.346C80.2994 102.022 79.6953 102.5 79 102.5H64V99.5H77.8138L86.5404 62.6543C86.7087 61.9437 87.3643 61.4575 88.0932 61.5029Z" fill="#1F2533"/>
<path fill-rule="evenodd" clip-rule="evenodd" d="M234 15H226V23H234V15ZM223 12V26H237V12H223Z" fill="#1F2533"/>
<path d="M203 23H214V26H203V23Z" fill="#1F2533"/>
<path fill-rule="evenodd" clip-rule="evenodd" d="M253.621 19L257.561 15.0607L255.439 12.9393L251.5 16.8787L247.561 12.9393L245.439 15.0607L249.379 19L245.439 22.9393L247.561 25.0607L251.5 21.1213L255.439 25.0607L257.561 22.9393L253.621 19Z" fill="#1F2533"/>
</svg>
